<svg width="132" height="131" viewBox="0 0 132 131" fill="none" xmlns="http://www.w3.org/2000/svg">
<rect x="1.8375" y="1.0875" width="128.325" height="128.325" rx="31.5375" fill="white" stroke="#007AFF" stroke-width="2.175"/>
<path d="M65.6758 91.2485C62.2773 91.2485 59.0743 90.5943 56.0667 89.2859C53.0761 87.9945 50.4338 86.2103 48.1398 83.9334C45.8629 81.6394 44.0702 78.9972 42.7618 76.0065C41.4704 72.9989 40.8247 69.7959 40.8247 66.3974C40.8247 62.999 41.4704 59.8045 42.7618 56.8139C44.0702 53.8062 45.8629 51.1555 48.1398 48.8615C50.4338 46.5676 53.0761 44.7749 56.0667 43.4835C59.0573 42.1921 62.2519 41.5464 65.6503 41.5464C69.0487 41.5464 72.2518 42.2006 75.2594 43.509C78.267 44.8004 80.9093 46.5931 83.1862 48.887C85.4802 51.164 87.2813 53.8062 88.5897 56.8139C89.8981 59.8045 90.5523 62.999 90.5523 66.3974C90.5523 69.7959 89.8981 72.9989 88.5897 76.0065C87.2813 78.9972 85.4802 81.6394 83.1862 83.9334C80.9093 86.2103 78.267 87.9945 75.2594 89.2859C72.2687 90.5943 69.0742 91.2485 65.6758 91.2485ZM65.6758 86.9155C68.5305 86.9155 71.1982 86.3888 73.6791 85.3352C76.16 84.2817 78.3435 82.8119 80.2296 80.9258C82.1157 79.0396 83.5855 76.8561 84.6391 74.3753C85.6926 71.8944 86.2193 69.2351 86.2193 66.3974C86.2023 63.5428 85.6586 60.875 84.5881 58.3941C83.5346 55.9133 82.0647 53.7383 80.1786 51.8691C78.3095 49.983 76.1345 48.5132 73.6536 47.4597C71.1728 46.3892 68.505 45.8539 65.6503 45.8539C62.8126 45.8539 60.1533 46.3892 57.6725 47.4597C55.1916 48.5132 53.0166 49.983 51.1475 51.8691C49.2783 53.7383 47.817 55.9133 46.7635 58.3941C45.71 60.875 45.1832 63.5428 45.1832 66.3974C45.1832 69.2521 45.71 71.9199 46.7635 74.4008C47.817 76.8816 49.2783 79.0651 51.1475 80.9513C53.0336 82.8204 55.2171 84.2817 57.6979 85.3352C60.1788 86.3888 62.8381 86.9155 65.6758 86.9155ZM29.304 66.3974C29.304 62.3533 29.9242 58.5046 31.1647 54.8513C32.4051 51.1979 34.1383 47.859 36.3643 44.8344C36.7551 44.3076 37.2479 44.0102 37.8426 43.9423C38.4543 43.8743 39.015 44.0442 39.5248 44.452C40.0006 44.8429 40.264 45.3186 40.3149 45.8794C40.3659 46.4401 40.2045 46.9669 39.8307 47.4597C37.8936 50.1274 36.3813 53.0671 35.2938 56.2786C34.2063 59.4731 33.6625 62.8461 33.6625 66.3974C33.6625 69.9318 34.2063 73.3048 35.2938 76.5163C36.3813 79.7278 37.8936 82.6505 39.8307 85.2843C40.2045 85.794 40.3574 86.3293 40.2895 86.89C40.2385 87.4508 39.9836 87.9266 39.5248 88.3174C39.015 88.7252 38.4543 88.8951 37.8426 88.8271C37.2479 88.7762 36.7551 88.4788 36.3643 87.935C34.1383 84.9104 32.4051 81.5715 31.1647 77.9182C29.9242 74.2648 29.304 70.4246 29.304 66.3974ZM102.048 66.3974C102.048 70.4246 101.427 74.2648 100.187 77.9182C98.9465 81.5715 97.2133 84.9104 94.9873 87.935C94.5965 88.4788 94.0952 88.7762 93.4835 88.8271C92.8888 88.8951 92.3365 88.7252 91.8268 88.3174C91.368 87.9266 91.1131 87.4508 91.0621 86.89C91.0111 86.3293 91.1641 85.794 91.5209 85.2843C93.475 82.6505 94.9873 79.7278 96.0578 76.5163C97.1453 73.3048 97.6891 69.9318 97.6891 66.3974C97.6891 62.8461 97.1453 59.4731 96.0578 56.2786C94.9873 53.0671 93.475 50.1274 91.5209 47.4597C91.1641 46.9669 91.0026 46.4401 91.0366 45.8794C91.0876 45.3186 91.351 44.8429 91.8268 44.452C92.3365 44.0442 92.8888 43.8743 93.4835 43.9423C94.0952 44.0102 94.5965 44.3076 94.9873 44.8344C97.2133 47.859 98.9465 51.1979 100.187 54.8513C101.427 58.5046 102.048 62.3533 102.048 66.3974ZM60.5017 78.0711C59.839 78.0711 59.3377 77.8587 58.9979 77.4339C58.658 77.0091 58.4881 76.4568 58.4881 75.7771V56.8393C58.4881 56.1597 58.658 55.6074 58.9979 55.1826C59.3377 54.7578 59.8305 54.5454 60.4762 54.5454H67.6129C70.0768 54.5454 72.0648 55.2676 73.5771 56.7119C75.1064 58.1562 75.8711 60.0509 75.8711 62.3958C75.8711 64.7407 75.1064 66.6268 73.5771 68.0542C72.0648 69.4815 70.0683 70.1952 67.5874 70.1952H62.5407V75.7771C62.5407 76.4908 62.3623 77.0516 62.0055 77.4594C61.6656 77.8672 61.1644 78.0711 60.5017 78.0711ZM62.5407 67.0856H67.0012C68.5135 67.0856 69.7029 66.6693 70.5695 65.8367C71.4361 64.9871 71.8694 63.8401 71.8694 62.3958C71.8694 60.9175 71.4276 59.762 70.544 58.9294C69.6774 58.0798 68.4965 57.655 67.0012 57.655H62.5407V67.0856Z" fill="#007AFF"/>
</svg>
